<?xml version="1.0" standalone="no"?>
<!DOCTYPE svg PUBLIC "-//W3C//DTD SVG 20010904//EN"
 "http://www.w3.org/TR/2001/REC-SVG-20010904/DTD/svg10.dtd">
<svg version="1.0" xmlns="http://www.w3.org/2000/svg"
 width="512.000000pt" height="512.000000pt" viewBox="0 0 512.000000 512.000000"
 preserveAspectRatio="xMidYMid meet">
<metadata>
Created by potrace 1.14, written by Peter Selinger 2001-2017
</metadata>
<g transform="translate(0.000000,512.000000) scale(0.100000,-0.100000)"
fill="#000000" stroke="none">
<path d="M1500 4600 c-12 -7 -15 -39 -15 -169 l-1 -161 833 0 833 0 284 -284
c156 -156 288 -292 293 -303 5 -10 9 -592 8 -1375 l0 -1358 162 0 c145 0 163
2 171 18 11 22 10 3612 -1 3630 -6 9 -273 12 -1280 12 -768 0 -1278 -4 -1287
-10z"/>
<path d="M1060 4160 c-13 -8 -15 -220 -16 -1807 0 -989 3 -1808 8 -1820 l8
-23 1279 0 c1013 0 1281 3 1288 13 4 6 8 704 8 1550 l0 1537 -110 1 c-60 0
-163 0 -228 0 -92 -1 -127 3 -154 16 -58 27 -63 51 -63 313 l0 230 -1002 0
c-615 0 -1009 -4 -1018 -10z m2236 -944 c20 -21 18 -63 -5 -76 -13 -7 -331
-10 -960 -10 l-940 0 -15 21 c-16 23 -12 47 12 67 12 9 219 12 955 12 800 0
941 -2 953 -14z m8 -568 c7 -12 7 -26 0 -45 l-9 -28 -949 -3 c-645 -1 -953 1
-961 8 -20 17 -24 47 -8 69 l14 21 951 -2 c882 -3 952 -4 962 -20z m-6 -550
c19 -19 15 -66 -7 -78 -13 -7 -329 -10 -955 -10 -919 0 -936 0 -956 20 -19 19
-18 40 3 68 14 17 1897 18 1915 0z m0 -560 c19 -19 15 -66 -7 -78 -13 -7 -329
-10 -955 -10 -919 0 -936 0 -956 20 -19 19 -18 40 3 68 14 17 1897 18 1915 0z
m0 -560 c14 -14 15 -47 2 -68 -8 -13 -126 -15 -952 -17 -541 -1 -949 2 -959 7
-23 13 -29 45 -12 69 14 21 16 21 962 21 723 0 950 -3 959 -12z"/>
<path d="M3182 3903 l3 -188 188 -1 c103 0 186 0 185 2 -17 20 -363 366 -369
370 -6 3 -8 -74 -7 -183z"/>
</g>
</svg>
